<svg width="14" height="15" fill="none" xmlns="http://www.w3.org/2000/svg"><path d="M1.5 14.128c-.31 0-.576-.11-.797-.331A1.086 1.086 0 01.372 13c0-.31.11-.576.331-.797a1.09 1.09 0 01.797-.331c.31 0 .576.11.797.331.22.221.331.487.331.797 0 .31-.11.576-.331.797a1.09 1.09 0 01-.797.331zm5.5 0c-.31 0-.576-.11-.797-.331A1.086 1.086 0 015.872 13c0-.31.11-.576.331-.797A1.09 1.09 0 017 11.872c.31 0 .576.11.797.331.22.221.331.487.331.797 0 .31-.11.576-.331.797a1.09 1.09 0 01-.797.331zm5.5 0c-.31 0-.576-.11-.797-.331a1.086 1.086 0 01-.331-.797c0-.31.11-.576.331-.797a1.09 1.09 0 01.797-.331c.31 0 .576.11.797.331.22.221.331.487.331.797 0 .31-.11.576-.331.797a1.09 1.09 0 01-.797.331zm-11-5.5c-.31 0-.576-.11-.797-.331A1.086 1.086 0 01.372 7.5c0-.31.11-.576.331-.797a1.09 1.09 0 01.797-.331c.31 0 .576.11.797.331.22.221.331.487.331.797 0 .31-.11.576-.331.797a1.09 1.09 0 01-.797.331zm5.5 0c-.31 0-.576-.11-.797-.331a1.086 1.086 0 01-.331-.797c0-.31.11-.576.331-.797A1.09 1.09 0 017 6.372c.31 0 .576.11.797.331.22.221.331.487.331.797 0 .31-.11.576-.331.797A1.09 1.09 0 017 8.628zm5.5 0c-.31 0-.576-.11-.797-.331a1.086 1.086 0 01-.331-.797c0-.31.11-.576.331-.797a1.09 1.09 0 01.797-.331c.31 0 .576.11.797.331.22.221.331.487.331.797 0 .31-.11.576-.331.797a1.09 1.09 0 01-.797.331zm-11-5.5c-.31 0-.576-.11-.797-.331A1.086 1.086 0 01.372 2c0-.31.11-.576.331-.797A1.09 1.09 0 011.5.872c.31 0 .576.11.797.331.22.221.331.487.331.797 0 .31-.11.576-.331.797a1.09 1.09 0 01-.797.331zm5.5 0c-.31 0-.576-.11-.797-.331A1.086 1.086 0 015.872 2c0-.31.11-.576.331-.797A1.09 1.09 0 017 .872c.31 0 .576.11.797.331.22.221.331.487.331.797 0 .31-.11.576-.331.797A1.09 1.09 0 017 3.128zm5.5 0c-.31 0-.576-.11-.797-.331A1.087 1.087 0 0111.372 2c0-.31.11-.576.331-.797A1.09 1.09 0 0112.5.872c.31 0 .576.11.797.331.22.221.331.487.331.797 0 .31-.11.576-.331.797a1.09 1.09 0 01-.797.331z" fill="#333"/></svg>