<svg width="20" height="20" fill="none" xmlns="http://www.w3.org/2000/svg"><mask id="mask0_428_7642" style="mask-type:alpha" maskUnits="userSpaceOnUse" x="0" y="0" width="20" height="20"><path transform="rotate(-90 0 20)" fill="#D9D9D9" d="M0 20h20v20H0z"/></mask><g mask="url(#mask0_428_7642)"><path d="M19 10a.691.691 0 01-.25.542.905.905 0 01-.619.219H4.953l3.365 2.965a.7.7 0 01.25.523.665.665 0 01-.25.542.89.89 0 01-.608.209.89.89 0 01-.608-.21L2.24 10.533A.665.665 0 012 10a.666.666 0 01.239-.532l4.863-4.259A.877.877 0 017.7 5c.24 0 .445.07.619.21a.693.693 0 010 1.083L4.953 9.24H18.13c.247 0 .453.072.62.218a.694.694 0 01.249.542z" fill="#999"/></g></svg>