<svg width="40" height="41" fill="none" xmlns="http://www.w3.org/2000/svg"><mask id="mask0_428_33301" style="mask-type:alpha" maskUnits="userSpaceOnUse" x="0" y="0" width="40" height="41"><path fill="#D9D9D9" d="M0 .5h40v40H0z"/></mask><g mask="url(#mask0_428_33301)"><path d="M15 25.5H9.833c-.666 0-1.16-.299-1.479-.896-.32-.597-.285-1.173.104-1.729L20.916 4.958A2.17 2.17 0 0122 4.146a2.035 2.035 0 011.375.02c.472.167.82.459 1.041.876.223.416.306.86.25 1.333l-1.333 10.792h6.459c.722 0 1.229.32 1.52.958.292.639.202 1.236-.27 1.792l-13.71 16.416c-.305.361-.68.598-1.125.709-.444.11-.875.07-1.291-.125a2.183 2.183 0 01-.98-.896 2.054 2.054 0 01-.27-1.313L15 25.5z" fill="#1E1E1E"/></g></svg>