<svg width="17" height="18" fill="none" xmlns="http://www.w3.org/2000/svg"><mask id="mask0_428_10364" style="mask-type:alpha" maskUnits="userSpaceOnUse" x="0" y="0" width="17" height="18"><path fill="#D9D9D9" d="M0 .5h17v17H0z"/></mask><g mask="url(#mask0_428_10364)"><path d="M4.958 15.375c-.39 0-.723-.139-1-.416a1.364 1.364 0 01-.417-1V4.75h-.708V3.333h3.542v-.708h4.25v.708h3.541V4.75h-.708v9.208c0 .39-.139.723-.416 1a1.364 1.364 0 01-1 .417H4.957zM12.041 4.75H4.958v9.208h7.083V4.75zm-5.666 7.792H7.79V6.167H6.375v6.375zm2.833 0h1.417V6.167H9.208v6.375z" fill="#CCC"/></g></svg>