<svg width="20" height="19" fill="none" xmlns="http://www.w3.org/2000/svg"><path d="M8.65 17.8l-1.725-1.575a68.377 68.377 0 01-4.787-4.813C.713 9.821 0 8.067 0 6.15c0-1.567.525-2.875 1.575-3.925C2.625 1.175 3.933.65 5.5.65c.883 0 1.717.187 2.5.562a5.96 5.96 0 012 1.538 5.956 5.956 0 012-1.538A5.717 5.717 0 0114.5.65c1.567 0 2.875.525 3.925 1.575C19.475 3.275 20 4.583 20 6.15c0 1.917-.708 3.675-2.125 5.275a59.863 59.863 0 01-4.825 4.825l-1.7 1.55a1.89 1.89 0 01-1.35.55 1.89 1.89 0 01-1.35-.55zm.4-13.05c-.483-.683-1-1.204-1.55-1.563-.55-.358-1.217-.537-2-.537-1 0-1.833.333-2.5 1s-1 1.5-1 2.5c0 .867.308 1.787.925 2.762a19.094 19.094 0 002.213 2.838 38.412 38.412 0 002.65 2.575c.908.8 1.645 1.458 2.212 1.975.567-.517 1.304-1.175 2.213-1.975.908-.8 1.791-1.658 2.65-2.575a19.097 19.097 0 002.212-2.838c.617-.975.925-1.895.925-2.762 0-1-.333-1.833-1-2.5s-1.5-1-2.5-1c-.783 0-1.45.18-2 .537-.55.359-1.067.88-1.55 1.563a1.138 1.138 0 01-.95.5 1.138 1.138 0 01-.95-.5z" fill="coral"/></svg>