<svg width="21" height="19" fill="none" xmlns="http://www.w3.org/2000/svg"><path d="M8.836 17.859L7.11 16.284a68.377 68.377 0 01-4.788-4.812C.898 9.88.186 8.126.186 6.209c0-1.567.525-2.875 1.575-3.925C2.81 1.234 4.119.709 5.686.709a5.72 5.72 0 012.5.562 5.96 5.96 0 012 1.538 5.956 5.956 0 012-1.538 5.717 5.717 0 012.5-.562c1.566 0 2.875.525 3.924 1.575 1.05 1.05 1.576 2.358 1.576 3.925 0 1.917-.709 3.675-2.125 5.275a59.847 59.847 0 01-4.825 4.825l-1.7 1.55a1.94 1.94 0 01-1.35.525c-.517 0-.967-.175-1.35-.525z" fill="coral"/></svg>