<svg width="40" height="40" fill="none" xmlns="http://www.w3.org/2000/svg"><mask id="mask0_168_27639" style="mask-type:alpha" maskUnits="userSpaceOnUse" x="0" y="0" width="40" height="40"><path fill="#D9D9D9" d="M0 0h40v40H0z"/></mask><g mask="url(#mask0_168_27639)"><path d="M8.333 35a3.21 3.21 0 01-2.354-.98A3.21 3.21 0 015 31.668V8.333c0-.916.326-1.701.98-2.354A3.21 3.21 0 018.332 5h18.334L35 13.333v18.334a3.21 3.21 0 01-.98 2.354 3.21 3.21 0 01-2.353.979H8.333zm0-3.333h23.334V15H25V8.333H8.333v23.334zm3.334-3.334h16.666V25H11.667v3.333zm0-13.333H20v-3.333h-8.333V15zm0 6.667h16.666v-3.334H11.667v3.334z" fill="#1E1E1E"/></g></svg>