<svg width="193" height="49" fill="none" xmlns="http://www.w3.org/2000/svg"><rect x=".5" y=".5" width="192" height="48" rx="2.5" fill="#fff"/><path d="M72.504 30V18.8h2.08v9.44h5.856V30h-7.936zm15.103.16c-.875 0-1.68-.144-2.416-.432a5.911 5.911 0 01-1.92-1.2 5.55 5.55 0 01-1.264-1.824 5.838 5.838 0 01-.448-2.304c0-.832.15-1.595.448-2.288a5.337 5.337 0 011.264-1.824 5.775 5.775 0 011.92-1.216 6.53 6.53 0 012.4-.432c.875 0 1.675.144 2.4.432a5.775 5.775 0 011.92 1.216 5.34 5.34 0 011.264 1.824c.299.693.448 1.456.448 2.288 0 .832-.15 1.6-.448 2.304a5.337 5.337 0 01-1.264 1.824 5.911 5.911 0 01-1.92 1.2 6.404 6.404 0 01-2.384.432zm-.016-1.824c.565 0 1.088-.096 1.568-.288.48-.192.896-.464 1.248-.816a4.026 4.026 0 001.12-2.832c0-.576-.101-1.099-.304-1.568a3.671 3.671 0 00-.816-1.248 3.56 3.56 0 00-1.248-.832 4.184 4.184 0 00-1.568-.288c-.565 0-1.088.096-1.568.288-.47.192-.885.47-1.248.832-.352.352-.63.768-.832 1.248-.192.47-.288.992-.288 1.568 0 .565.096 1.088.288 1.568.203.48.48.901.832 1.264.352.352.768.624 1.248.816.48.192 1.003.288 1.568.288zm13.949 1.824a6.8 6.8 0 01-2.416-.416 5.953 5.953 0 01-1.904-1.2 5.506 5.506 0 01-1.264-1.84 5.84 5.84 0 01-.448-2.304c0-.832.15-1.6.448-2.304a5.337 5.337 0 011.264-1.824 5.744 5.744 0 011.936-1.2 6.575 6.575 0 012.416-.432c.949 0 1.802.155 2.56.464.768.31 1.413.763 1.936 1.36l-1.312 1.28a4.208 4.208 0 00-1.424-.96 4.21 4.21 0 00-1.664-.32c-.587 0-1.131.096-1.632.288a3.773 3.773 0 00-1.296.816 3.754 3.754 0 00-.848 1.248 4.228 4.228 0 00-.288 1.584c0 .565.096 1.088.288 1.568.202.48.485.901.848 1.264.362.352.79.624 1.28.816.49.192 1.034.288 1.632.288a5.02 5.02 0 001.6-.256 4.451 4.451 0 001.488-.896l1.184 1.552c-.587.47-1.27.827-2.048 1.072a7.953 7.953 0 01-2.336.352zm2.416-1.696v-4.192h1.968v4.464l-1.968-.272zm10.439 1.696c-.875 0-1.68-.144-2.416-.432a5.911 5.911 0 01-1.92-1.2 5.555 5.555 0 01-1.264-1.824 5.833 5.833 0 01-.448-2.304c0-.832.149-1.595.448-2.288a5.34 5.34 0 011.264-1.824 5.775 5.775 0 011.92-1.216 6.53 6.53 0 012.4-.432c.875 0 1.675.144 2.4.432a5.775 5.775 0 011.92 1.216 5.34 5.34 0 011.264 1.824c.299.693.448 1.456.448 2.288 0 .832-.149 1.6-.448 2.304a5.34 5.34 0 01-1.264 1.824 5.911 5.911 0 01-1.92 1.2 6.403 6.403 0 01-2.384.432zm-.016-1.824c.565 0 1.088-.096 1.568-.288.48-.192.896-.464 1.248-.816a4.026 4.026 0 001.12-2.832 3.91 3.91 0 00-.304-1.568 3.671 3.671 0 00-.816-1.248 3.56 3.56 0 00-1.248-.832 4.185 4.185 0 00-1.568-.288c-.565 0-1.088.096-1.568.288-.469.192-.885.47-1.248.832a3.882 3.882 0 00-.832 1.248c-.192.47-.288.992-.288 1.568 0 .565.096 1.088.288 1.568.203.48.48.901.832 1.264.352.352.768.624 1.248.816.48.192 1.003.288 1.568.288z" fill="#CCC"/><rect x=".5" y=".5" width="192" height="48" rx="2.5" stroke="#CCC"/></svg>