<svg width="25" height="25" fill="none" xmlns="http://www.w3.org/2000/svg"><g clip-path="url(#clip0_428_3326)"><path d="M20.96 19.197c0 .295-.2.508-.486.508-.296 0-.486-.226-.486-.508 0-.282.19-.508.486-.508.286 0 .485.226.485.508zM7.47 18.69c-.309 0-.486.226-.486.508 0 .282.178.508.486.508.282 0 .472-.213.472-.508-.004-.282-.19-.508-.472-.508zm5.1-.012c-.235 0-.379.151-.413.377h.829c-.04-.248-.19-.377-.416-.377zm4.678.012c-.295 0-.472.226-.472.508 0 .282.178.508.473.508s.485-.213.485-.508c0-.282-.191-.508-.486-.508zm4.597 1.133c0 .013.013.022.013.048 0 .013-.013.022-.013.047-.014.014-.014.022-.022.035-.014.013-.022.022-.048.022-.013.013-.022.013-.048.013-.013 0-.021 0-.047-.013-.014 0-.022-.014-.035-.022-.013-.014-.021-.022-.021-.035-.014-.022-.014-.034-.014-.047 0-.022 0-.035.014-.048 0-.022.013-.034.021-.048.014-.013.022-.013.035-.021.022-.014.034-.014.047-.014.022 0 .035 0 .048.014.022.012.034.012.048.021.013.01.008.026.022.048zm-.096.061c.022 0 .022-.013.035-.013.013-.014.013-.022.013-.035 0-.012 0-.021-.013-.034-.013 0-.022-.013-.048-.013h-.07v.151h.035v-.06h.013l.048.06h.034l-.047-.056zM25 4.905v15.278a2.084 2.084 0 01-2.084 2.084H2.084A2.084 2.084 0 010 20.183V4.905A2.084 2.084 0 012.083 2.82h20.834A2.084 2.084 0 0125 4.905zM2.778 10.963a6.013 6.013 0 006.011 6.011 6.059 6.059 0 003.32-1.002c-3.164-2.573-3.142-7.43 0-10.005a6.008 6.008 0 00-9.331 4.996zm9.722 4.723c3.06-2.387 3.047-7.04 0-9.44-3.047 2.4-3.06 7.057 0 9.44zm-6.177 3.312c0-.378-.247-.625-.638-.638-.2 0-.412.06-.555.282-.104-.178-.282-.282-.53-.282a.552.552 0 00-.46.234v-.19h-.356v1.592h.356c0-.82-.109-1.31.39-1.31.443 0 .357.442.357 1.31h.343c0-.794-.109-1.31.39-1.31.443 0 .356.434.356 1.31h.356v-.998h-.009zm1.95-.595H7.93v.19a.626.626 0 00-.508-.233c-.447 0-.79.356-.79.837 0 .486.343.838.79.838.226 0 .39-.083.508-.235v.2h.343v-1.597zm1.758 1.111c0-.65-.994-.356-.994-.66 0-.248.516-.208.803-.048l.143-.282c-.408-.264-1.311-.26-1.311.357 0 .62.994.36.994.65 0 .274-.586.252-.899.035l-.151.273c.486.33 1.415.26 1.415-.325zm1.536.403l-.095-.295c-.165.09-.53.19-.53-.178v-.72h.569v-.322h-.569v-.485h-.356v.485h-.33v.318h.33v.725c0 .764.75.625.981.472zm.577-.58h1.194c0-.704-.321-.982-.756-.982-.46 0-.79.343-.79.837 0 .89.982 1.038 1.467.617l-.164-.26c-.339.278-.851.251-.951-.213zm2.565-.934c-.199-.086-.503-.078-.659.19v-.19h-.356v1.593h.356v-.898c0-.504.412-.438.555-.365l.104-.33zm.46.794c0-.495.505-.655.899-.365l.165-.282c-.504-.394-1.42-.178-1.42.651 0 .86.972 1.033 1.42.65l-.165-.281c-.4.282-.898.113-.898-.374v.001zm2.895-.794h-.356v.19c-.36-.476-1.298-.207-1.298.604 0 .834.972 1.072 1.298.603v.2h.356v-1.597zm1.463 0c-.104-.052-.478-.125-.66.19v-.19h-.343v1.593h.343v-.898c0-.477.39-.447.556-.365l.104-.33zm1.749-.647h-.343v.838c-.356-.473-1.298-.221-1.298.603 0 .842.977 1.067 1.298.603v.2h.343v-2.244zm.33-3.259v.2h.035v-.2h.082v-.034h-.2v.034h.083zm.286 5.373c0-.022 0-.048-.012-.07-.014-.013-.022-.034-.035-.047-.012-.014-.034-.022-.047-.035-.022 0-.048-.013-.07-.013-.013 0-.034.013-.06.013a.26.26 0 00-.048.035c-.022.012-.035.034-.035.047-.013.022-.013.048-.013.07 0 .013 0 .034.013.06 0 .014.014.035.035.048a.135.135 0 00.047.035.123.123 0 00.061.012c.022 0 .048 0 .07-.012.013-.014.034-.022.047-.035.014-.012.022-.034.035-.047.012-.026.012-.048.012-.061zm.14-5.412h-.062l-.07.152-.069-.152h-.06v.234h.034v-.178l.07.152h.047l.06-.152v.178h.049v-.234zm.19-3.495c0-3.307-2.695-6.002-6.011-6.002a6.05 6.05 0 00-3.32 1.002c3.13 2.575 3.177 7.444 0 10.005a6.007 6.007 0 009.331-5.005z" fill="#fff"/></g><defs><clipPath id="clip0_428_3326"><path fill="#fff" d="M0 0h25v25H0z"/></clipPath></defs></svg>