<svg width="10" height="12" fill="none" xmlns="http://www.w3.org/2000/svg"><path d="M5 8.61c.963-.777 1.69-1.526 2.18-2.245.491-.72.737-1.396.737-2.027 0-.545-.1-1.01-.3-1.393a2.92 2.92 0 00-.736-.934 2.833 2.833 0 00-.948-.517A3.136 3.136 0 005 1.334a3.13 3.13 0 00-.933.16 2.85 2.85 0 00-.948.517 2.92 2.92 0 00-.737.934c-.199.384-.299.848-.299 1.393 0 .631.246 1.307.737 2.027.49.719 1.218 1.468 2.18 2.245zm0 1.473C3.63 9.073 2.606 8.09 1.93 7.137 1.255 6.186.917 5.252.917 4.338c0-.69.124-1.295.372-1.815s.566-.955.955-1.305A3.94 3.94 0 013.556.429 4.241 4.241 0 015 .167c.476 0 .958.087 1.444.262a3.94 3.94 0 011.312.788c.39.35.708.785.956 1.305.247.52.371 1.125.371 1.816 0 .913-.337 1.847-1.013 2.8-.676.952-1.7 1.934-3.07 2.945zm0-4.666c.32 0 .596-.115.824-.343.229-.229.343-.503.343-.824 0-.32-.114-.595-.343-.824A1.123 1.123 0 005 3.083c-.32 0-.595.115-.824.343a1.123 1.123 0 00-.343.824c0 .32.115.595.343.824.229.228.503.343.824.343zM.917 11.833v-1.166h8.166v1.166H.917z" fill="#999"/></svg>