<svg width="24" height="24" fill="none" xmlns="http://www.w3.org/2000/svg"><mask id="mask0_428_26478" style="mask-type:alpha" maskUnits="userSpaceOnUse" x="0" y="0" width="24" height="24"><path fill="#D9D9D9" d="M0 0h24v24H0z"/></mask><g mask="url(#mask0_428_26478)"><path d="M7 22c-.55 0-1.02-.196-1.412-.587A1.926 1.926 0 015 20c0-.55.196-1.02.588-1.413A1.926 1.926 0 017 18c.55 0 1.02.196 1.412.587C8.804 18.98 9 19.45 9 20s-.196 1.02-.588 1.413A1.926 1.926 0 017 22zm10 0c-.55 0-1.02-.196-1.412-.587A1.926 1.926 0 0115 20c0-.55.196-1.02.588-1.413A1.926 1.926 0 0117 18c.55 0 1.02.196 1.413.587.391.392.587.863.587 1.413s-.196 1.02-.587 1.413A1.926 1.926 0 0117 22zM6.15 6l2.4 5h7l2.75-5H6.15zM7 17c-.75 0-1.317-.33-1.7-.988-.383-.658-.4-1.312-.05-1.962L6.6 11.6 3 4H1.975a.927.927 0 01-.7-.288A.99.99 0 011 3c0-.283.096-.52.288-.712A.968.968 0 012 2h1.625c.183 0 .358.05.525.15a.93.93 0 01.375.425L5.2 4h14.75c.45 0 .758.167.925.5.167.333.158.683-.025 1.05l-3.55 6.4a2.034 2.034 0 01-.725.775A1.93 1.93 0 0115.55 13H8.1L7 15h11.025c.283 0 .517.096.7.287.183.192.275.43.275.713s-.096.52-.288.712A.968.968 0 0118 17H7z" fill="coral"/></g></svg>