<svg width="12" height="13" fill="none" xmlns="http://www.w3.org/2000/svg"><path d="M6 9.975l-2.775 2.119a.654.654 0 01-.45.16.789.789 0 01-.431-.141.863.863 0 01-.29-.357.626.626 0 01-.01-.487L3.112 7.8.394 5.869a.634.634 0 01-.282-.394.78.78 0 01.282-.816.672.672 0 01.45-.159H4.2L5.287.9a.815.815 0 01.291-.403A.712.712 0 016 .357c.15 0 .29.046.422.14a.815.815 0 01.29.403L7.8 4.5h3.356c.175 0 .325.053.45.16a.78.78 0 01.281.816.634.634 0 01-.28.393L8.886 7.8l1.07 3.469a.626.626 0 01-.01.487.863.863 0 01-.29.357.789.789 0 01-.432.14.654.654 0 01-.45-.16L6 9.976z" fill="#FFD976"/></svg>