<svg width="12" height="12" fill="none" xmlns="http://www.w3.org/2000/svg"><path d="M2.791 11.374V4.332l3.25-3.223a.8.8 0 01.481-.237.893.893 0 01.535.102.86.86 0 01.38.379c.08.162.098.33.053.501l-.61 2.478h3.495c.289 0 .541.108.758.325.217.217.325.47.325.758V6.5c0 .063-.009.13-.027.203-.018.072-.036.14-.054.203l-1.625 3.819c-.081.18-.217.334-.406.46-.19.127-.389.19-.596.19H2.79zm1.084-6.581v5.497H8.75l1.625-3.79V5.415H5.5l.73-2.979-2.355 2.357zm-2.709 6.58c-.298 0-.553-.105-.765-.317a1.043 1.043 0 01-.318-.765V5.414c0-.297.106-.552.318-.765.212-.212.467-.318.765-.318h1.625v1.083H1.166v4.875h1.625v1.084H1.166z" fill="#CCC"/></svg>