<svg width="25" height="25" fill="none" xmlns="http://www.w3.org/2000/svg"><g clip-path="url(#clip0_428_3324)"><path d="M20.404 11.428s.33 1.615.404 1.953h-1.45l.695-1.888c-.008.013.143-.395.23-.647l.121.582zM25 4.861v15.278a2.084 2.084 0 01-2.084 2.084H2.084A2.085 2.085 0 010 20.139V4.861a2.084 2.084 0 012.084-2.084h20.834A2.084 2.084 0 0125 4.861zM6.619 15.764l2.743-6.736H7.517l-1.705 4.6-.187-.932-.608-3.1c-.1-.429-.408-.55-.79-.568H1.42l-.03.134a6.854 6.854 0 011.83.743l1.554 5.86H6.62zm4.098.009l1.093-6.745h-1.744l-1.09 6.745h1.74zm6.071-2.205c.009-.768-.46-1.354-1.462-1.836-.612-.309-.985-.516-.985-.834.008-.286.317-.582 1.002-.582a2.99 2.99 0 011.298.257l.156.073.239-1.459a4.339 4.339 0 00-1.563-.286c-1.723 0-2.934.92-2.943 2.23-.013.968.869 1.506 1.529 1.832.672.33.903.546.903.837-.009.452-.547.66-1.046.66-.695 0-1.068-.11-1.637-.36l-.23-.11-.243 1.515c.408.187 1.164.352 1.945.36 1.831.005 3.025-.902 3.038-2.3v.003zm6.128 2.205L21.51 9.028h-1.35c-.416 0-.733.122-.912.56l-2.59 6.185h1.83l.365-1.01h2.24c.052.239.209 1.01.209 1.01h1.614z" fill="#fff"/></g><defs><clipPath id="clip0_428_3324"><path fill="#fff" d="M0 0h25v25H0z"/></clipPath></defs></svg>