<svg width="13" height="13" fill="none" xmlns="http://www.w3.org/2000/svg"><mask id="mask0_428_1316" style="mask-type:alpha" maskUnits="userSpaceOnUse" x="0" y="0" width="13" height="13"><path fill="#D9D9D9" d="M0 0h13v13H0z"/></mask><g mask="url(#mask0_428_1316)"><path d="M6.5 8.667a2.35 2.35 0 001.727-.711 2.35 2.35 0 00.71-1.727 2.35 2.35 0 00-.71-1.726A2.35 2.35 0 006.5 3.792a2.35 2.35 0 00-1.726.71 2.35 2.35 0 00-.711 1.727c0 .677.237 1.253.71 1.727a2.35 2.35 0 001.727.71zm0-.975a1.41 1.41 0 01-1.036-.427 1.41 1.41 0 01-.426-1.036c0-.406.142-.751.426-1.036A1.41 1.41 0 016.5 4.767c.407 0 .752.142 1.036.426.285.285.427.63.427 1.036 0 .407-.142.752-.427 1.036a1.41 1.41 0 01-1.036.427zm0 2.6a6.257 6.257 0 01-3.44-.996A6.332 6.332 0 01.705 6.608.44.44 0 01.65 6.44a1.587 1.587 0 010-.42.44.44 0 01.054-.169 6.331 6.331 0 012.357-2.688 6.257 6.257 0 013.44-.995c1.254 0 2.4.332 3.439.995a6.332 6.332 0 012.356 2.688.44.44 0 01.054.17 1.592 1.592 0 010 .42.44.44 0 01-.054.168A6.332 6.332 0 019.94 9.296a6.257 6.257 0 01-3.44.996zm0-1.084a5.17 5.17 0 002.81-.805 5.294 5.294 0 001.957-2.174A5.293 5.293 0 009.31 4.056 5.17 5.17 0 006.5 3.25a5.17 5.17 0 00-2.81.806 5.294 5.294 0 00-1.956 2.173A5.294 5.294 0 003.69 8.403a5.17 5.17 0 002.81.805z" fill="#CCC"/></g></svg>